PathFileType	4	(X/Y/Z)	C:\Users\WrightLab\Desktop\Jo\P2_Trial23.trc
DataRate	CameraRate	NumFrames	NumMarkers	Units	OrigDataRate	OrigDataStartFrame	OrigNumFrames
100.00	100.00	      10	19	mm	100.00	761	      1217
Frame#	Time	Headset_Front			Headset_Back			Headset_Left			Headset_Right			Left_Shoulder			Right_Shoulder			Sternum			C7			Left Elbow			Right Elbow			Left Wrist			Right Wrist			Left ASIS			Right ASIS			S2			Left Knee			Right Knee			Left Ankle			Right Ankle			
		X1	Y1	Z1	X2	Y2	Z2	X3	Y3	Z3	X4	Y4	Z4	X5	Y5	Z5	X6	Y6	Z6	X7	Y7	Z7	X8	Y8	Z8	X9	Y9	Z9	X10	Y10	Z10	X11	Y11	Z11	X12	Y12	Z12	X13	Y13	Z13	X14	Y14	Z14	X15	Y15	Z15	X16	Y16	Z16	X17	Y17	Z17	X18	Y18	Z18	X19	Y19	Z19	

761	7.600	-202.94356	1401.21704	98.09894	-181.12794	1682.79895	224.32890	-288.20938	1546.61450	226.94373	-96.02407	1510.92554	97.47899	-189.72844	1501.44897	439.08426	-27.64824	1421.87683	169.44395	-168.66847	1337.95898	301.06738	-3.26449	1465.79846	347.81729	-248.20094	1164.78259	563.71606	62.13298	1100.91309	109.39499	-305.43140	944.28015	598.62878	8.82948	909.12671	-15.76304	-226.28125	1070.14978	385.63519	-161.29558	1026.01843	274.24649	20.66820	986.56677	481.01056	-229.55794	505.07913	603.03882	21.09097	543.84790	280.52570	-256.60269	149.98416	580.82080	0.68434	105.64749	293.27457	
762	7.610	-204.01552	1400.43140	98.07441	-181.35303	1682.36377	223.86391	-288.71863	1546.43640	226.49057	-97.13587	1509.93469	99.72767	-189.44450	1501.35168	439.95914	-28.48880	1421.03613	171.70496	-168.83566	1337.96155	301.06714	-3.51316	1465.79846	347.72919	-248.97519	1165.37878	564.62860	62.66118	1100.14453	111.12366	-306.98416	945.16766	600.82770	12.10229	910.34271	-14.78026	-224.72815	1069.19666	385.26801	-161.52228	1026.24109	274.08905	19.97362	986.54535	480.50046	-229.78044	504.94397	602.72791	20.96048	543.75122	280.52429	-256.65936	149.90096	580.73663	0.42737	106.33001	293.08151	
763	7.620	-204.04121	1400.25037	97.73873	-182.19087	1682.09375	223.36919	-289.46729	1546.03833	226.37112	-98.40124	1509.92944	96.45872	-189.93512	1501.17517	440.00729	-27.87246	1422.11316	169.45798	-168.96780	1337.91138	301.07697	-4.01254	1465.96936	348.59833	-249.45363	1165.34546	565.38715	63.26873	1100.13269	112.87509	-306.97479	946.00537	602.03040	16.30942	911.32935	-14.50281	-226.71742	1070.23376	385.13797	-161.80119	1026.35791	273.92877	19.36659	986.40369	479.95721	-230.40286	505.09125	602.58551	20.73414	543.91760	279.61050	-256.70483	149.80557	580.67169	0.71457	106.07696	293.06537	
764	7.630	-205.06180	1399.68555	97.33768	-182.82771	1681.62207	223.05328	-288.28543	1545.04309	225.67110	-98.96391	1508.91724	96.61684	-190.64038	1501.12451	439.63684	-28.10763	1422.32788	170.08530	-169.17963	1337.73254	301.16229	-4.49630	1466.07849	348.51108	-250.32007	1166.04199	566.53387	63.93122	1100.02856	114.60107	-308.52795	947.43896	604.23059	20.18877	912.62457	-13.52531	-227.22075	1070.35852	384.89017	-162.06543	1026.45764	273.84085	18.58939	986.39972	480.15448	-230.88077	505.17825	602.17920	20.51636	544.29120	278.55508	-256.74670	149.73689	580.64905	1.32607	106.52403	292.58292	
765	7.640	-204.74634	1399.12305	97.65781	-183.13722	1681.03418	221.91248	-288.85944	1544.79211	225.39180	-99.47404	1508.31921	95.64455	-191.53520	1501.12402	439.38669	-27.99036	1421.97852	170.02364	-169.33034	1337.35376	301.12000	-5.46508	1466.35144	348.74112	-251.32381	1166.52625	567.53729	64.50187	1100.02197	116.02275	-310.38058	948.23975	606.41461	23.79957	913.55365	-13.13390	-227.70264	1070.45679	384.66675	-162.43340	1026.52539	273.70325	18.45290	986.30078	480.31122	-231.16006	505.09811	601.70361	19.89217	544.27734	278.30792	-256.79391	149.64124	580.60913	1.07493	106.85484	292.54721	
766	7.650	-206.09378	1398.05188	97.04919	-183.87076	1680.49915	221.09807	-289.32590	1543.82300	224.93280	-100.65702	1507.05261	97.75276	-191.85167	1501.09277	438.99557	-28.64161	1422.18359	169.55412	-169.47455	1337.23462	301.09412	-5.79508	1466.19617	348.74258	-251.89464	1166.82800	568.26630	65.32702	1099.75720	117.62003	-310.65149	948.91492	607.87555	27.70815	914.89032	-12.98499	-228.13879	1070.60828	384.47665	-162.78922	1026.62561	273.51236	17.25507	986.32648	481.01932	-232.38646	504.71945	601.28601	19.38612	544.08856	277.92007	-256.85626	149.52879	580.54797	1.27871	106.57455	291.76794	
767	7.660	-207.14273	1396.59460	97.16309	-184.67505	1679.84949	220.21288	-291.91534	1543.63196	224.41676	-101.02144	1506.39758	97.75851	-192.90598	1501.26379	438.61459	-28.79025	1422.10083	169.54965	-169.62094	1337.08057	301.09097	-6.50352	1466.37610	348.36627	-253.36554	1167.16650	569.39850	66.19534	1099.96008	118.80965	-312.38345	950.31610	610.35229	31.88492	916.10822	-12.04122	-228.60802	1070.68750	384.56982	-163.13876	1026.60144	273.41132	16.75891	986.39594	480.96817	-233.74463	504.55737	600.67499	18.52576	544.18494	277.36310	-256.92633	149.44557	580.58398	1.75302	107.20194	291.26624	
768	7.670	-207.50246	1396.06189	96.64862	-185.71796	1679.30688	219.38809	-292.84753	1542.94189	223.78377	-100.86883	1505.68628	94.17509	-193.48714	1501.00378	438.07703	-28.86130	1421.54602	169.78748	-169.88959	1336.77405	301.18097	-7.09836	1466.06055	348.21844	-254.45468	1167.47473	570.19275	67.49119	1099.51587	120.26812	-314.19159	950.63116	612.61450	36.29554	917.30035	-12.20687	-229.00049	1070.72900	384.41730	-163.46463	1026.57910	273.33002	15.86088	986.37952	481.58777	-234.84483	504.61749	599.90393	17.70983	543.77032	276.65790	-257.17099	149.24290	580.70654	1.27871	106.57455	291.76794	
769	7.680	-207.81616	1394.72327	96.43765	-186.61473	1678.40625	218.19223	-293.24188	1541.94495	222.90695	-102.69953	1504.47913	95.97018	-194.42001	1500.78625	437.37906	-29.59708	1421.82727	168.95447	-170.26694	1336.33508	301.33182	-7.56400	1465.88477	347.91693	-255.60789	1168.06104	570.90381	69.03400	1100.04932	120.95995	-315.25467	951.84088	615.20081	40.08062	917.09729	-11.34899	-229.26527	1070.72205	384.33099	-164.02225	1026.67114	273.71558	15.83570	986.05139	481.68768	-236.03624	504.40900	599.27533	16.92861	543.53247	273.78671	-257.24579	149.12906	580.71631	1.27871	106.57455	291.76794	
770	7.690	-208.27893	1393.59229	95.61277	-187.19829	1677.51892	216.36281	-291.98096	1540.03345	221.96759	-103.15627	1503.07422	92.21642	-195.19374	1500.63647	436.84018	-29.68329	1420.94104	168.55574	-170.38092	1335.96423	301.05484	-8.68677	1465.73169	347.40097	-257.23810	1168.72522	572.20190	70.57841	1099.61377	121.89754	-316.42957	952.49347	616.72754	44.01773	918.07446	-10.88592	-229.83562	1070.52502	384.47220	-164.34222	1026.69885	273.61020	15.53983	985.95868	481.95200	-236.81664	504.14084	598.35504	16.38530	543.86743	273.74707	-257.35818	148.66779	580.94733	1.10912	106.92292	291.68698	
